<svg width="800" height="800" viewBox="0 0 800 800" fill="none" xmlns="http://www.w3.org/2000/svg">
<g clip-path="url(#clip0_1_2)">
<path d="M416.767 138.067L393.2 114.5L443.333 64.4L466.9 87.9667L416.767 138.067ZM333.333 37.8H300V132.233H333.333V37.8ZM238 114.467L187.9 64.4334L164.333 88L214.433 138.1L238 114.467ZM632.5 474.067C632.832 467.526 631.801 460.988 629.473 454.867C627.145 448.746 623.57 443.176 618.976 438.509C614.381 433.843 608.867 430.182 602.783 427.759C596.699 425.336 590.178 424.203 583.633 424.433C575.89 424.544 568.166 425.257 560.533 426.567L559.133 426.033C555.223 417.98 549.061 411.233 541.393 406.612C533.725 401.991 524.881 399.694 515.933 400C509.338 399.622 502.726 400.343 496.367 402.133C490.665 390.676 481.522 381.289 470.219 375.288C458.916 369.287 446.018 366.972 433.333 368.667C421.974 368.454 410.674 370.341 400 374.233V230C399.749 221.555 397.815 213.244 394.312 205.556C390.808 197.867 385.806 190.955 379.597 185.224C373.388 179.494 366.098 175.06 358.154 172.182C350.21 169.305 341.772 168.042 333.333 168.467C324.895 168.042 316.456 169.305 308.512 172.182C300.568 175.06 293.278 179.494 287.07 185.224C280.861 190.955 275.858 197.867 272.355 205.556C268.852 213.244 266.918 221.555 266.667 230V461.8L232.633 421.333C228.701 415.043 223.517 409.629 217.405 405.426C211.292 401.223 204.381 398.321 197.1 396.9C182.875 393.412 167.863 395.325 154.967 402.267C148.984 405.69 143.787 410.331 139.71 415.889C135.633 421.447 132.768 427.799 131.3 434.533C128.359 447.419 130.345 460.938 136.867 472.433L208.667 618.433L319.333 753.9L345.1 732.733L237.733 602.033L166.267 456.733C163.599 452.266 162.718 446.956 163.8 441.867C164.271 439.625 165.213 437.508 166.563 435.658C167.913 433.808 169.642 432.265 171.633 431.133C177.278 428.453 183.688 427.851 189.733 429.433C192.963 430.063 196.024 431.361 198.722 433.244C201.42 435.127 203.695 437.553 205.4 440.367L300 553.333V230C300.257 225.93 301.333 221.954 303.165 218.311C304.996 214.667 307.545 211.432 310.658 208.798C313.771 206.164 317.385 204.187 321.281 202.984C325.178 201.781 329.277 201.379 333.333 201.8C337.389 201.379 341.489 201.781 345.385 202.984C349.282 204.187 352.895 206.164 356.008 208.798C359.122 211.432 361.671 214.667 363.502 218.311C365.334 221.954 366.41 225.93 366.667 230V466.667H400V420.7C400 408.267 411.2 401.967 433.333 401.967C445.8 401.967 466.667 404.4 466.667 420.7V466.667H500V447.9C500 435.9 503.7 432.233 515.933 432.233C532.833 432.233 533.333 455.033 533.333 457.633V493.067H566.667V458.667L566.5 458.733L566.667 458.467V458.667C567.033 458.5 578.733 457.767 583.6 457.767C587.9 457.767 600 462.967 600 483.133C600.733 491.3 600 582.867 600 619.567C599.995 649.757 594.774 679.72 584.567 708.133C579.233 722.167 565.9 748.833 565.9 748.833L596.5 763.167C596.5 763.167 605.567 742.967 609.767 732.333C616.943 715.532 622.209 697.977 625.467 680C630.461 643.206 633.088 606.13 633.333 569L632.5 474.067Z" fill="white"/>
</g>
<defs>
<clipPath id="clip0_1_2">
<rect width="800" height="800" fill="white"/>
</clipPath>
</defs>
</svg>
